<svg xmlns="http://www.w3.org/2000/svg" xmlns:xlink="http://www.w3.org/1999/xlink" version="1.1" x="0px" y="0px" viewBox="0 0 500 34.7" enable-background="new 0 0 500 34.7" xml:space="preserve" style="fill: rgb(0, 0, 0);" role="img" aria-label="Line">
<g id="__id551_sxzva7mn0r">
	<g id="__id552_sxzva7mn0r"><path d="M499.7,6.7c0.7-0.9,0.1-2.6-1.3-2.2c-3.2,1.1-6.1,3.8-8.8,5.9c-2.7,2-5.4,4-8,6c-0.2-0.1-0.4-0.1-0.6-0.1   c-5.9,0.1-11.9,0.1-17.8,0.2c2-1.6,4-3.2,6-4.8c3-2.4,6.5-4.7,9.1-7.6c1-1.2-0.3-2.9-1.7-2.2c-3.2,1.6-6,4.4-8.6,6.8   s-5.1,5-7.3,7.7c-6.6,0.1-13.3,0.2-19.9,0.2c1.5-2.3,3.1-4.6,4.8-6.9c2-2.7,4.8-5.3,6-8.4c0.4-1-1-2-1.8-1.4   c-2.8,1.7-4.6,5.2-6.4,7.8c-1.9,2.9-3.7,5.8-5.2,8.9c-38.1,0.4-76.2,0.9-114.3,1.5V22c37.8-0.5,75.7-1.2,113.5-1.8   c2.3,2.5,4.7,4.8,7,7.2c2.3,2.3,4.6,5.6,7.6,6.9c1.1,0.5,2.2-0.5,1.7-1.7c-1.4-2.9-4.7-5.3-7-7.5c-1.7-1.7-3.5-3.4-5.3-5.1   c6.1-0.1,12.3-0.2,18.4-0.3c0,0,0,0.1,0.1,0.1c2.8,2.5,5.7,4.8,8.7,7.2c2.6,2.1,5.3,4.8,8.3,6.1c1.4,0.6,2.5-0.9,1.6-2   c-2.1-2.6-5.4-4.5-8.1-6.5c-2.3-1.7-4.6-3.3-6.9-5c5.8-0.1,11.6-0.2,17.5-0.3c5.1,3.8,10.5,8.3,16.1,11c1.4,0.7,3-1.1,1.7-2.3   c-4.3-4-9.9-7.1-15.1-10.2c2.7-1.8,5.4-3.6,8.1-5.5C494.4,11,497.7,9.3,499.7,6.7z" style="fill: rgb(109, 88, 80);"></path></g>
</g>
<g id="__id553_sxzva7mn0r">
	<g id="__id554_sxzva7mn0r"><path d="M62,16.9c-1.6-3.1-3.3-6.1-5.2-8.9c-1.8-2.6-3.7-6.1-6.4-7.8c-0.9-0.5-2.2,0.4-1.8,1.4c1.2,3.2,4,5.7,6,8.4   c1.7,2.2,3.2,4.5,4.8,6.9c-6.6-0.1-13.3-0.2-19.9-0.2c-2.2-2.8-4.7-5.3-7.3-7.7s-5.4-5.2-8.6-6.8c-1.4-0.7-2.7,1-1.7,2.2   C24.4,7.3,28,9.5,31,12c2,1.6,4,3.2,6,4.8c-6.1-0.3-12-0.3-18-0.4c-0.2,0-0.4,0-0.6,0.1c-2.6-2.1-5.3-4.1-8-6   c-2.7-2-5.6-4.8-8.8-5.9c-1.4-0.5-2,1.3-1.3,2.2c2,2.5,5.3,4.2,8,6.1s5.4,3.7,8.1,5.5c-5.2,3.1-10.8,6.2-15.1,10.2   C0,29.8,1.7,31.5,3,30.9c5.7-2.7,11.1-7.2,16.1-11c5.8,0.1,11.6,0.2,17.5,0.3c-2.3,1.6-4.6,3.3-6.9,5c-2.7,2-6,3.9-8.1,6.5   c-0.9,1.2,0.2,2.6,1.6,2c3-1.4,5.7-4.1,8.3-6.1c2.9-2.4,5.9-4.7,8.7-7.2c0,0,0-0.1,0.1-0.1c6.1,0.1,12.3,0.2,18.4,0.3   c-1.8,1.7-3.5,3.4-5.3,5.1c-2.3,2.2-5.7,4.6-7,7.5c-0.5,1.2,0.5,2.2,1.7,1.7c2.9-1.3,5.3-4.7,7.6-6.9c2.4-2.4,4.7-4.8,7-7.2   c37.8,0.6,75.7,1.3,113.5,1.8v-3.9C138.2,17.7,100.1,17.3,62,16.9z" style="fill: rgb(109, 88, 80);"></path></g>
</g>
<g id="__id555_sxzva7mn0r">
	<g id="__id556_sxzva7mn0r"><path id="__id557_sxzva7mn0r" d="M250.1,19.8C250,19.8,250,19.8,250.1,19.8c-0.1,0-0.1,0-0.1,0c-24.6-0.6-49.1-1.1-74.2-1.1v3.9   c23.7-0.1,46.8,0.2,69.9,0.4l0,0l0,0c0.1,0,0.3,0.1,0.5,0.1c1.3,0,2.6,0,3.8,0h0.1h0.1c1.3,0,2.6,0,3.8,0c0.2,0,0.3,0,0.5-0.1l0,0   l0,0c23.1-0.2,46.2-0.5,69.9-1v-3.9C299.2,18.7,274.6,19.2,250.1,19.8z" style="fill: rgb(109, 88, 80);"></path></g>
</g>
</svg>